<svg xmlns="http://www.w3.org/2000/svg" xmlns:xlink="http://www.w3.org/1999/xlink" width="200" zoomAndPan="magnify" viewBox="0 0 150 149.999998" height="200" preserveAspectRatio="xMidYMid meet" version="1.0"><path fill="#0188cc" d="M 84.246094 14.894531 C 83.945312 15.195312 83.695312 15.59375 83.695312 15.777344 C 83.695312 15.960938 81.570312 19.988281 78.96875 24.726562 C 76.847656 28.589844 74.730469 32.453125 72.617188 36.316406 C 69.738281 41.601562 55.488281 67.609375 54.308594 69.734375 C 53.679688 70.867188 52.171875 73.648438 50.960938 75.914062 C 49.75 78.179688 48.40625 80.65625 47.980469 81.421875 C 47.554688 82.183594 46.324219 84.449219 45.25 86.457031 C 44.175781 88.460938 43.101562 90.351562 42.859375 90.65625 C 41.765625 92.03125 43.144531 92.164062 58.261719 92.164062 C 69.917969 92.164062 73.621094 92.03125 73.964844 91.59375 C 74.214844 91.277344 75.097656 89.785156 75.929688 88.273438 C 76.757812 86.761719 77.78125 84.910156 78.199219 84.152344 C 78.621094 83.398438 79.796875 81.234375 80.816406 79.347656 C 83.382812 74.585938 88.667969 64.847656 89.886719 62.640625 L 92.40625 58.0625 C 93.238281 56.550781 94.261719 54.695312 94.679688 53.941406 C 95.097656 53.1875 96.332031 50.917969 97.414062 48.90625 C 98.5 46.890625 101.078125 42.152344 103.144531 38.375 C 105.210938 34.601562 107.632812 30.171875 108.519531 28.535156 C 109.433594 26.855469 110.351562 25.175781 111.273438 23.5 C 111.898438 22.367188 113.082031 20.203125 113.902344 18.691406 C 114.722656 17.183594 115.574219 15.75 115.796875 15.511719 C 116.015625 15.273438 116.199219 14.910156 116.199219 14.710938 C 116.199219 14.078125 84.878906 14.257812 84.246094 14.894531 M 38.503906 26.359375 C 38.261719 26.675781 37.171875 28.582031 36.085938 30.59375 C 32.722656 36.835938 31.445312 39.171875 29.457031 42.726562 C 28.398438 44.613281 26.433594 48.21875 25.09375 50.738281 C 23.75 53.253906 21.246094 57.859375 19.53125 60.972656 C 17.8125 64.085938 16.40625 66.8125 16.40625 67.039062 C 16.40625 67.261719 16.199219 67.445312 15.945312 67.445312 C 15.695312 67.445312 15.488281 67.859375 15.488281 68.371094 C 15.488281 69.308594 45.023438 69.8125 46.476562 68.898438 C 46.964844 68.59375 47.746094 67.296875 50.394531 62.410156 C 51.144531 61.023438 52.351562 58.8125 53.078125 57.488281 C 54.734375 54.472656 56.394531 51.457031 58.058594 48.449219 C 58.476562 47.691406 59.714844 45.425781 60.804688 43.414062 C 61.894531 41.398438 63.816406 37.894531 65.074219 35.628906 C 66.328125 33.363281 67.945312 30.449219 68.660156 29.152344 C 69.375 27.851562 69.964844 26.566406 69.964844 26.289062 C 69.964844 25.519531 39.101562 25.589844 38.503906 26.359375 M 100.320312 59.320312 C 100.117188 59.632812 99.730469 60.304688 99.460938 60.808594 C 99.1875 61.3125 98.449219 62.648438 97.816406 63.78125 C 97.183594 64.914062 95.667969 67.695312 94.449219 69.960938 C 93.234375 72.230469 91.757812 74.851562 91.171875 75.789062 C 90.585938 76.730469 90.105469 77.597656 90.105469 77.71875 C 90.105469 77.839844 88.046875 81.664062 85.527344 86.214844 C 83.007812 90.765625 80.949219 94.554688 80.949219 94.632812 C 80.949219 94.714844 79.894531 96.613281 78.605469 98.851562 C 77.316406 101.089844 75.339844 104.671875 74.210938 106.8125 C 73.082031 108.953125 72.003906 110.910156 71.816406 111.160156 C 71.625 111.414062 70.476562 113.472656 69.269531 115.738281 C 68.0625 118.003906 66.621094 120.683594 66.066406 121.691406 C 65.511719 122.699219 64.386719 124.757812 63.5625 126.269531 C 62.742188 127.777344 61.167969 130.605469 60.066406 132.546875 C 58.960938 134.488281 58.0625 136.191406 58.0625 136.328125 C 58.0625 136.464844 65.199219 136.527344 73.921875 136.460938 L 89.78125 136.339844 L 91.785156 132.71875 C 94.351562 128.070312 96.882812 123.402344 99.382812 118.714844 C 100.386719 116.828125 101.460938 114.871094 101.765625 114.367188 C 102.300781 113.488281 103.714844 110.933594 106.519531 105.78125 C 107.617188 103.765625 111.894531 95.949219 119.855469 81.40625 C 122.769531 76.074219 125.671875 70.730469 128.5625 65.386719 C 129.648438 63.371094 130.8125 61.316406 131.148438 60.820312 C 132.5625 58.734375 132.667969 58.746094 116.226562 58.746094 C 104.296875 58.746094 100.601562 58.878906 100.320312 59.320312 " fill-opacity="1" fill-rule="evenodd"/></svg>